HIERARCHY
ROOT Hips
{
    OFFSET 0.000000 0.000000 0.000000
    CHANNELS 6 Xposition Yposition Zposition Zrotation Xrotation Yrotation
    JOINT Spine
    {
        OFFSET -0.000000 7.236184 0.000000
        CHANNELS 3 Zrotation Xrotation Yrotation
        JOINT Spine1
        {
            OFFSET -0.000000 20.420147 0.000000
            CHANNELS 3 Zrotation Xrotation Yrotation
            JOINT Neck
            {
                OFFSET -0.000000 20.336288 1.848754
                CHANNELS 3 Zrotation Xrotation Yrotation
                JOINT Head
                {
                    OFFSET -0.000000 12.354461 -1.764923
                    CHANNELS 3 Zrotation Xrotation Yrotation
                    End Site
                    {
                        OFFSET -0.000000 22.061537 0.000000
                    }
                }
            }
            JOINT LeftShoulder
            {
                OFFSET 3.573296 18.396038 -0.314103
                CHANNELS 3 Zrotation Xrotation Yrotation
                JOINT LeftArm
                {
                    OFFSET 10.880760 0.000000 0.000000
                    CHANNELS 3 Zrotation Xrotation Yrotation
                    JOINT LeftForeArm
                    {
                        OFFSET 27.185530 0.000000 0.000000
                        CHANNELS 3 Zrotation Xrotation Yrotation
                        JOINT LeftHand
                        {
                            OFFSET 27.825975 0.000000 0.000000
                            CHANNELS 3 Zrotation Xrotation Yrotation
                            End Site
                            {
                                OFFSET 13.236923 0.000000 0.000000
                            }
                        }
                    }
                }
            }
            JOINT RightShoulder
            {
                OFFSET -3.474926 18.396038 -0.314103
                CHANNELS 3 Zrotation Xrotation Yrotation
                JOINT RightArm
                {
                    OFFSET -10.880760 0.000000 0.000000
                    CHANNELS 3 Zrotation Xrotation Yrotation
                    JOINT RightForeArm
                    {
                        OFFSET -27.185530 0.000000 0.000000
                        CHANNELS 3 Zrotation Xrotation Yrotation
                        JOINT RightHand
                        {
                            OFFSET -27.825975 0.000000 0.000000
                            CHANNELS 3 Zrotation Xrotation Yrotation
                            End Site
                            {
                                OFFSET -13.236923 0.000000 0.000000
                            }
                        }
                    }
                }
            }
        }
    }
    JOINT LeftUpLeg
    {
        OFFSET 8.824615 0.000000 0.000000
        CHANNELS 3 Zrotation Xrotation Yrotation
        JOINT LeftLeg
        {
            OFFSET -0.000000 -35.111282 0.000000
            CHANNELS 3 Zrotation Xrotation Yrotation
            JOINT LeftFoot
            {
                OFFSET -0.000000 -42.324711 0.000000
                CHANNELS 3 Zrotation Xrotation Yrotation
                JOINT LeftToeBase
                {
                    OFFSET -0.000000 -5.735999 13.236923
                    CHANNELS 3 Zrotation Xrotation Yrotation
                    End Site
                    {
                        OFFSET -0.000000 0.000000 3.529846
                    }
                }
            }
        }
    }
    JOINT RightUpLeg
    {
        OFFSET -8.824615 0.000000 0.000000
        CHANNELS 3 Zrotation Xrotation Yrotation
        JOINT RightLeg
        {
            OFFSET -0.000000 -35.111282 0.000000
            CHANNELS 3 Zrotation Xrotation Yrotation
            JOINT RightFoot
            {
                OFFSET -0.000000 -42.324711 0.000000
                CHANNELS 3 Zrotation Xrotation Yrotation
                JOINT RightToeBase
                {
                    OFFSET -0.000000 -5.735999 13.236923
                    CHANNELS 3 Zrotation Xrotation Yrotation
                    End Site
                    {
                        OFFSET -0.000000 0.000000 3.529846
                    }
                }
            }
        }
    }
}
MOTION
Frames:    5
Frame Time:    0.008333
4.608026    96.439301    97.690269    17.895647    32.033817    -97.275589    1.477313    -5.768583    -1.280920    6.608613    -3.085998    -1.177140    6.042706    20.558624    -24.618141    22.539146    5.947464    -23.567989    13.518065    -4.089329    -12.707600    -15.757382    12.519031    -57.346176    21.870184    -19.964603    -119.409996    34.676266    22.472515    13.002547    0.945277    11.146874    0.383463    21.077490    45.408802    23.447021    -9.257877    8.852614    23.201366    -50.603664    5.660539    10.797915    33.344772    -25.781843    12.764892    1.301939    16.600847    13.268081    -2.677948    25.049969    -23.795382    2.718980    -6.142358    -3.049224    -49.271717    -32.732262    -25.764301    134.605972    75.571434    -122.813332    13.454468    4.063676    -14.248663    1.959598    0.233642    -2.118747    
4.609511    96.716652    97.599411    18.285330    32.755611    -97.106361    1.689990    -5.795871    -1.291260    6.838585    -3.121195    -1.190332    6.128121    20.625999    -24.688709    22.768246    5.765385    -23.579861    13.374618    -3.805683    -12.713212    -15.600101    12.632046    -57.758549    21.431984    -19.868715    -120.620842    33.466339    22.616610    13.161113    1.175025    11.218410    0.264384    21.307407    44.489635    22.901834    -8.548925    8.846916    21.835058    -49.824478    5.784616    10.173144    34.214886    -25.906170    13.356348    1.194622    15.947914    13.818824    -2.623551    25.741858    -24.155188    2.731452    -6.013384    -3.062415    -50.203423    -32.165119    -25.964775    128.352570    76.893105    -116.813644    13.555644    4.255570    -14.572972    1.977457    0.048714    -2.138597    
4.608844    96.931480    97.510971    18.673069    33.472111    -96.985275    1.919333    -5.827724    -1.278618    7.067177    -3.142081    -1.182301    6.201556    20.693567    -24.776360    23.012896    5.569706    -23.605494    13.233474    -3.514259    -12.697667    -15.462623    12.708136    -58.129810    20.972340    -19.805267    -121.842735    32.216003    22.705194    13.389426    1.392305    11.288802    0.148192    21.543819    43.517448    22.365898    -7.856622    8.828825    20.501493    -49.055870    5.903069    9.557736    35.081249    -26.032906    13.872531    1.090271    15.392525    14.249088    -2.568319    26.210911    -24.463999    2.758989    -5.961669    -3.092964    -51.080246    -31.581686    -26.091141    119.996429    78.103584    -108.741859    13.632032    4.447259    -14.886396    2.004831    -0.168149    -2.168845    
4.606684    97.084961    97.425049    19.059048    34.180954    -96.914810    2.160285    -5.861844    -1.243845    7.297796    -3.149872    -1.153555    6.265334    20.761515    -24.879232    23.269524    5.365165    -23.643911    13.097229    -3.223877    -12.663682    -15.350081    12.750163    -58.459820    20.497177    -19.769400    -123.071411    30.938358    22.743462    13.674403    1.595115    11.356562    0.037441    21.780458    42.501877    21.844189    -7.182941    8.798199    19.195118    -48.294231    6.016843    8.948076    35.942467    -26.160574    14.307053    0.989311    14.938322    14.565241    -2.529804    26.446768    -24.705044    2.795171    -5.981364    -3.133646    -51.904522    -30.987871    -26.145626    109.037727    79.065308    -98.098869    13.675226    4.639793    -15.187405    2.041537    -0.417169    -2.209309    
4.603807    97.177635    97.342468    19.440115    34.873817    -96.898087    2.405690    -5.895137    -1.188562    7.532148    -3.146136    -1.105302    6.320782    20.828928    -24.993679    23.531816    5.159971    -23.693451    12.969057    -2.944987    -12.613658    -15.268742    12.761722    -58.746552    20.020426    -19.755720    -124.283409    29.665535    22.740021    13.993983    1.780021    11.419180    -0.063918    22.008974    41.463943    21.345522    -6.536250    8.754107    17.923185    -47.539886    6.125543    8.344810    36.789707    -26.285000    14.652095    0.891872    14.588408    14.781748    -2.520610    26.442383    -24.866814    2.828475    -6.056873    -3.171460    -52.669815    -30.395348    -26.131477    95.524673    79.583778    -84.928894    13.677993    4.830704    -15.474251    2.084830    -0.696095    -2.257028    
